#!OML:ASF F:\VICON\USERDATA\INSTALL\SteveWalk\SteveWalk.ASF
:FULLY-SPECIFIED
:DEGREES
108
root -0.387807 15.9469 -22.8367 16.5976 5.61834 3.44234
lowerback -14.8122 -3.08682 0.763115
upperback -4.88569 -4.20814 0.699457
thorax 3.11612 -2.08628 -0.418659
lowerneck -3.69049 0.0644688 -0.147752
upperneck 5.44915 0.163433 -1.16833
head 2.34867 0.0442774 -0.339875
rclavicle -8.38623e-016 -3.97569e-016
rhumerus -100.842 -29.5092 19.245
rradius 11.0869
rwrist 70.9494
rhand -14.4134 -34.8391
rfingers 7.12502
rthumb 11.7305 -64.4906
lclavicle -8.38623e-016 -3.97569e-016
lhumerus -17.0465 2.05984 77.9935
lradius 54.9552
lwrist 12.7163
lhand -22.2666 -18.9944
lfingers 7.12502
lthumb 4.15129 10.9449
rfemur -50.4548 -6.18696 20.8909
rtibia 26.2483
rfoot -6.792 2.45721
rtoes -33.5549
lfemur 2.5419 -0.814813 -22.0207
ltibia 25.018
lfoot -13.35 -12.6317
ltoes -24.8945
109
root -0.383723 15.9586 -22.5833 16.697 5.5847 3.37912
lowerback -14.7259 -3.07677 1.25206
upperback -4.93495 -4.26564 0.755635
thorax 2.98606 -2.11794 -0.635654
lowerneck -4.39932 0.224811 -0.089899
upperneck 5.67766 0.396553 -1.42469
head 2.55837 0.150177 -0.424983
rclavicle 1.87603e-014 -1.43125e-014
rhumerus -101.565 -29.6058 20.9279
rradius 11.0726
rwrist 71.9888
rhand -14.6213 -34.5384
rfingers 7.12502
rthumb 11.5299 -64.2012
lclavicle 1.87603e-014 -1.43125e-014
lhumerus -17.7299 2.42386 77.9091
lradius 55.9965
lwrist 12.6616
lhand -22.449 -19.2648
lfingers 7.12502
lthumb 3.97522 10.6778
rfemur -50.6906 -5.6558 20.3812
rtibia 28.0259
rfoot -5.47548 2.68593
rtoes -29.8729
lfemur 1.84672 -1.03923 -22.0004
ltibia 27.1175
lfoot -10.4729 -13.7039
ltoes -24.4702
110
root -0.397567 15.9557 -22.3599 16.9187 5.11008 2.43293
lowerback -14.7273 -2.81328 2.29037
upperback -5.27607 -4.07185 1.11981
thorax 2.58478 -2.03209 -0.791342
lowerneck -3.49743 0.317339 -0.0470132
upperneck 5.21969 0.53014 -1.83927
head 2.2438 0.212026 -0.557794
rclavicle 4.08314e-014 2.38542e-015
rhumerus -100.821 -29.5507 20.0438
rradius 11.0981
rwrist 70.8635
rhand -14.812 -34.5966
rfingers 7.12502
rthumb 11.3461 -64.2697
lclavicle 4.08314e-014 2.38542e-015
lhumerus -19.0268 2.83012 77.9285
lradius 57.0141
lwrist 12.6176
lhand -22.5052 -19.5163
lfingers 7.12502
lthumb 3.92093 10.4273
rfemur -51.0914 -3.78922 20.5026
rtibia 29.7161
rfoot -4.57735 1.6245
rtoes -29.474
lfemur 0.488259 -0.981156 -21.0422
ltibia 29.8093
lfoot -7.00898 -14.8196
ltoes -17.845
111
root -0.394634 15.9324 -22.1216 17.0467 4.67508 1.82872
lowerback -14.7914 -2.57732 3.16676
upperback -5.44627 -3.89008 1.37174
thorax 2.40206 -1.95084 -0.986122
lowerneck -3.25308 0.426079 0.000609654
upperneck 4.95776 0.694793 -2.35795
head 2.11912 0.284394 -0.724455
rclavicle 7.93586e-015 2.62396e-014
rhumerus -100.118 -29.7702 19.1491
rradius 11.1488
rwrist 69.7848
rhand -14.9362 -35.221
rfingers 7.12502
rthumb 11.2263 -64.9007
lclavicle 7.93586e-015 2.62396e-014
lhumerus -20.1658 3.26483 78.0283
lradius 57.9234
lwrist 12.5408
lhand -22.7326 -19.5859
lfingers 7.12502
lthumb 3.70138 10.3617
rfemur -51.4189 -2.73707 20.7359
rtibia 31.552
rfoot -4.56371 0.840847
rtoes -31.3924
lfemur -0.648231 -1.01215 -20.4713
ltibia 32.7757
lfoot -5.03328 -15.6729
ltoes -11.2323
112
root -0.387337 15.9209 -21.8771 17.039 4.4058 1.4548
lowerback -14.5854 -2.43405 3.86634
upperback -5.54256 -3.79204 1.5536
thorax 2.15878 -1.91283 -1.1572
lowerneck -3.63303 0.569086 0.0162772
upperneck 5.03385 0.91055 -2.73539
head 2.21979 0.37878 -0.841469
rclavicle -9.65037e-015 -1.35174e-014
rhumerus -99.5504 -30.1768 18.4163
rradius 11.2091
rwrist 68.9593
rhand -14.9955 -35.9543
rfingers 7.12502
rthumb 11.1691 -65.637
lclavicle -9.65037e-015 -1.35174e-014
lhumerus -21.1934 3.73523 78.147
lradius 58.6931
lwrist 12.3489
lhand -22.7803 -19.7055
lfingers 7.12502
lthumb 3.65525 10.2429
rfemur -51.5568 -2.24258 21.0005
rtibia 33.3971
rfoot -5.15006 0.62905
rtoes -31.9344
lfemur -1.75331 -0.919374 -20.1516
ltibia 35.9174
lfoot 3.14716 -14.5649
ltoes 5.00188
113
root -0.386119 15.9248 -21.6362 17.0074 4.04 1.33197
lowerback -14.419 -2.32374 4.12499
upperback -5.45927 -3.68166 1.68396
thorax 2.15387 -1.85866 -1.14306
lowerneck -4.34469 0.730069 0.0726522
upperneck 5.10694 1.1452 -2.99303
head 2.3815 0.483155 -0.926691
rclavicle 4.88638e-014 -1.90833e-014
rhumerus -98.9675 -30.9938 17.3337
rradius 11.2789
rwrist 67.9039
rhand -14.8442 -36.0671
rfingers 7.12502
rthumb 11.315 -65.7419
lclavicle 4.88638e-014 -1.90833e-014
lhumerus -21.9406 4.29592 78.3061
lradius 59.3789
lwrist 12.115
lhand -22.7193 -19.8032
lfingers 7.12502
lthumb 3.71413 10.1442
rfemur -51.6688 -1.88089 21.11
rtibia 35.2429
rfoot -6.08924 1.03028
rtoes -31.2934
lfemur -2.9939 -0.737791 -20.1447
ltibia 39.0325
lfoot 6.53294 -14.3827
ltoes 0.530891
114
root -0.390089 15.9299 -21.4057 16.9702 3.52749 1.09938
lowerback -14.2873 -2.15132 4.34398
upperback -5.26767 -3.49138 1.85674
thorax 2.29104 -1.7594 -1.05603
lowerneck -5.32031 0.900311 -0.0817641
upperneck 5.3538 1.39924 -2.97398
head 2.64747 0.596349 -0.885115
rclavicle -1.20513e-014 -1.59028e-015
rhumerus -97.9415 -32.0652 15.3154
rradius 11.3189
rwrist 66.1622
rhand -14.6351 -35.6734
rfingers 7.12502
rthumb 11.5167 -65.337
lclavicle -1.20513e-014 -1.59028e-015
lhumerus -22.5207 4.91121 78.5014
lradius 59.9623
lwrist 12.0008
lhand -22.4863 -19.7791
lfingers 7.12502
lthumb 3.9392 10.1643
rfemur -51.6931 -1.43136 21.4175
rtibia 36.8132
rfoot -6.99014 1.79915
rtoes -29.5113
lfemur -4.38339 -0.411527 -19.9939
ltibia 42.1796
lfoot 9.05653 -14.5201
ltoes -2.27101
